<?xml version="1.0" standalone="no"?><!DOCTYPE svg PUBLIC "-//W3C//DTD SVG 1.1//EN" "http://www.w3.org/Graphics/SVG/1.1/DTD/svg11.dtd"><svg t="1570519734713" class="icon" viewBox="0 0 1024 1024" version="1.1" xmlns="http://www.w3.org/2000/svg" p-id="27596" xmlns:xlink="http://www.w3.org/1999/xlink" width="200" height="200"><defs><style type="text/css"></style></defs><path d="M864 128H160c-19.2 0-32 12.8-32 32v704c0 19.2 12.8 32 32 32h704c19.2 0 32-12.8 32-32V160c0-19.2-12.8-32-32-32z m-32 704H192V192h640v640z" p-id="27597"></path><path d="M320 384v288c0 19.2 12.8 32 32 32s32-12.8 32-32V352c0-19.2-12.8-32-32-32h-32c-19.2 0-32 12.8-32 32s12.8 32 32 32zM640 384v288c0 19.2 12.8 32 32 32s32-12.8 32-32V352c0-19.2-12.8-32-32-32h-32c-19.2 0-32 12.8-32 32s12.8 32 32 32z" p-id="27598"></path><path d="M512 384m-32 0a32 32 0 1 0 64 0 32 32 0 1 0-64 0Z" p-id="27599"></path><path d="M512 640m-32 0a32 32 0 1 0 64 0 32 32 0 1 0-64 0Z" p-id="27600"></path></svg>